<svg width="32" height="32" viewBox="0 0 32 32" fill="none" xmlns="http://www.w3.org/2000/svg">
<rect width="32" height="32" rx="16" fill="#6956E8"/>
<path d="M16.0003 10.4582C16.0012 10.1415 15.9389 9.8279 15.8168 9.53572C15.6947 9.24354 15.5155 8.97872 15.2896 8.75684C15.0637 8.53495 14.7957 8.36047 14.5014 8.24367C14.2071 8.12686 13.8924 8.07009 13.5758 8.07669C13.2593 8.08329 12.9472 8.15312 12.658 8.28209C12.3688 8.41106 12.1083 8.59655 11.8919 8.82766C11.6754 9.05877 11.5074 9.33082 11.3976 9.62783C11.2878 9.92484 11.2386 10.2408 11.2527 10.5571C10.7873 10.6768 10.3553 10.9008 9.98937 11.2121C9.62341 11.5234 9.33309 11.9139 9.1404 12.3541C8.94771 12.7942 8.85771 13.2725 8.8772 13.7525C8.8967 14.2326 9.02519 14.702 9.25294 15.125C8.8525 15.4504 8.53761 15.8686 8.33566 16.3434C8.13372 16.8181 8.05084 17.3351 8.09423 17.8492C8.13761 18.3633 8.30596 18.859 8.58462 19.2932C8.86328 19.7274 9.24381 20.0869 9.6931 20.3405C9.63762 20.7698 9.67073 21.2059 9.79039 21.6219C9.91005 22.0378 10.1137 22.4249 10.3888 22.7591C10.6639 23.0932 11.0046 23.3675 11.3898 23.5648C11.7751 23.7622 12.1967 23.8784 12.6286 23.9065C13.0605 23.9345 13.4936 23.8737 13.9011 23.7278C14.3086 23.5819 14.6819 23.354 14.9979 23.0581C15.3139 22.7623 15.5658 22.4049 15.7382 22.0078C15.9107 21.6108 15.9999 21.1827 16.0003 20.7498V10.4582Z" stroke="white" stroke-width="1.58333" stroke-linecap="round" stroke-linejoin="round"/>
<path d="M13.625 16.7917C14.2896 16.5579 14.87 16.1322 15.2928 15.5685C15.7155 15.0049 15.9616 14.3285 16 13.625" stroke="white" stroke-width="1.58333" stroke-linecap="round" stroke-linejoin="round"/>
<path d="M11.252 10.5576C11.2676 10.9406 11.3757 11.3141 11.567 11.6462" stroke="white" stroke-width="1.58333" stroke-linecap="round" stroke-linejoin="round"/>
<path d="M9.25293 15.126C9.39776 15.008 9.55274 14.9031 9.71605 14.8125" stroke="white" stroke-width="1.58333" stroke-linecap="round" stroke-linejoin="round"/>
<path d="M11.2496 20.7503C10.704 20.7506 10.1676 20.6098 9.69238 20.3418" stroke="white" stroke-width="1.58333" stroke-linecap="round" stroke-linejoin="round"/>
<path d="M16 16.792H19.1667" stroke="white" stroke-width="1.58333" stroke-linecap="round" stroke-linejoin="round"/>
<path d="M16 20.75H20.75C21.1699 20.75 21.5727 20.9168 21.8696 21.2137C22.1665 21.5107 22.3333 21.9134 22.3333 22.3333V23.125" stroke="white" stroke-width="1.58333" stroke-linecap="round" stroke-linejoin="round"/>
<path d="M16 12.833H22.3333" stroke="white" stroke-width="1.58333" stroke-linecap="round" stroke-linejoin="round"/>
<path d="M19.167 12.8333V10.4583C19.167 10.0384 19.3338 9.63568 19.6307 9.33875C19.9277 9.04181 20.3304 8.875 20.7503 8.875" stroke="white" stroke-width="1.58333" stroke-linecap="round" stroke-linejoin="round"/>
<path d="M19.1663 17.1872C19.385 17.1872 19.5622 17.01 19.5622 16.7913C19.5622 16.5727 19.385 16.3955 19.1663 16.3955C18.9477 16.3955 18.7705 16.5727 18.7705 16.7913C18.7705 17.01 18.9477 17.1872 19.1663 17.1872Z" stroke="white" stroke-width="1.58333" stroke-linecap="round" stroke-linejoin="round"/>
<path d="M20.7503 9.27116C20.9689 9.27116 21.1462 9.09394 21.1462 8.87533C21.1462 8.65671 20.9689 8.47949 20.7503 8.47949C20.5317 8.47949 20.3545 8.65671 20.3545 8.87533C20.3545 9.09394 20.5317 9.27116 20.7503 9.27116Z" stroke="white" stroke-width="1.58333" stroke-linecap="round" stroke-linejoin="round"/>
<path d="M22.3333 23.5212C22.5519 23.5212 22.7292 23.3439 22.7292 23.1253C22.7292 22.9067 22.5519 22.7295 22.3333 22.7295C22.1147 22.7295 21.9375 22.9067 21.9375 23.1253C21.9375 23.3439 22.1147 23.5212 22.3333 23.5212Z" stroke="white" stroke-width="1.58333" stroke-linecap="round" stroke-linejoin="round"/>
<path d="M22.3333 13.2292C22.5519 13.2292 22.7292 13.0519 22.7292 12.8333C22.7292 12.6147 22.5519 12.4375 22.3333 12.4375C22.1147 12.4375 21.9375 12.6147 21.9375 12.8333C21.9375 13.0519 22.1147 13.2292 22.3333 13.2292Z" stroke="white" stroke-width="1.58333" stroke-linecap="round" stroke-linejoin="round"/>
</svg>
